<?xml version="1.0" encoding="UTF-8" standalone="no"?><!DOCTYPE svg PUBLIC "-//W3C//DTD SVG 1.1//EN" "http://www.w3.org/Graphics/SVG/1.1/DTD/svg11.dtd"><svg width="100%" height="100%" viewBox="0 0 1172 870" version="1.1" xmlns="http://www.w3.org/2000/svg" xmlns:xlink="http://www.w3.org/1999/xlink" xml:space="preserve" xmlns:serif="http://www.serif.com/" style="fill-rule:evenodd;clip-rule:evenodd;stroke-linecap:round;stroke-linejoin:round;stroke-miterlimit:1.5;"><g id="head"><g id="lips"><path d="M539.19,412.03c0,-0 63.676,15.509 129.697,-2.779" style="fill:none;stroke:#6a64d3;stroke-width:5px;"/><path d="M538.064,413.941c-0,0 20.244,10.125 44.849,18.224c24.604,8.098 63.844,-4.488 84.199,-18.704c15.625,-10.913 -30.221,15.168 -129.048,0.48Z" style="fill:#6a64d3;"/></g><g id="beard"><g><g><g><g><g><path d="M731.318,403.832l-6.431,-1.66" style="fill:none;stroke:#6a64d3;stroke-width:1.25px;"/><path d="M728.818,413.515l-6.431,-1.661" style="fill:none;stroke:#6a64d3;stroke-width:1.25px;"/><path d="M726.195,407.674l-6.431,-1.661" style="fill:none;stroke:#6a64d3;stroke-width:1.25px;"/></g><g><path d="M733.818,394.15l-6.431,-1.661" style="fill:none;stroke:#6a64d3;stroke-width:1.25px;"/><path d="M731.318,403.832l-6.431,-1.66" style="fill:none;stroke:#6a64d3;stroke-width:1.25px;"/><path d="M728.695,397.991l-6.431,-1.66" style="fill:none;stroke:#6a64d3;stroke-width:1.25px;"/></g><g><path d="M738.819,374.785l-6.431,-1.66" style="fill:none;stroke:#6a64d3;stroke-width:1.25px;"/><path d="M736.318,384.468l-6.43,-1.661" style="fill:none;stroke:#6a64d3;stroke-width:1.25px;"/><path d="M733.696,378.626l-6.431,-1.66" style="fill:none;stroke:#6a64d3;stroke-width:1.25px;"/></g></g><g><g><path d="M736.318,384.468l-6.43,-1.661" style="fill:none;stroke:#6a64d3;stroke-width:1.25px;"/><path d="M731.195,388.309l-6.431,-1.661" style="fill:none;stroke:#6a64d3;stroke-width:1.25px;"/></g><g><path d="M738.819,374.785l-6.431,-1.66" style="fill:none;stroke:#6a64d3;stroke-width:1.25px;"/><path d="M736.318,384.468l-6.43,-1.661" style="fill:none;stroke:#6a64d3;stroke-width:1.25px;"/><path d="M733.696,378.626l-6.431,-1.66" style="fill:none;stroke:#6a64d3;stroke-width:1.25px;"/></g><g><path d="M741.319,365.103l-6.431,-1.661" style="fill:none;stroke:#6a64d3;stroke-width:1.25px;"/><path d="M738.819,374.785l-6.431,-1.66" style="fill:none;stroke:#6a64d3;stroke-width:1.25px;"/><path d="M736.196,368.944l-6.431,-1.661" style="fill:none;stroke:#6a64d3;stroke-width:1.25px;"/></g><g><path d="M743.819,355.42l-6.431,-1.66" style="fill:none;stroke:#6a64d3;stroke-width:1.25px;"/><path d="M741.319,365.103l-6.431,-1.661" style="fill:none;stroke:#6a64d3;stroke-width:1.25px;"/><path d="M738.696,359.261l-6.431,-1.66" style="fill:none;stroke:#6a64d3;stroke-width:1.25px;"/></g></g></g></g><g><g><g><g><path d="M710.596,460.469l-6.431,-1.661" style="fill:none;stroke:#6a64d3;stroke-width:1.25px;"/><path d="M703.537,463.81l-6.431,-1.661" style="fill:none;stroke:#6a64d3;stroke-width:1.25px;"/><path d="M701.037,473.492l-6.431,-1.66" style="fill:none;stroke:#6a64d3;stroke-width:1.25px;"/><path d="M698.414,467.651l-6.431,-1.661" style="fill:none;stroke:#6a64d3;stroke-width:1.25px;"/></g><g><path d="M713.097,450.786l-6.431,-1.66" style="fill:none;stroke:#6a64d3;stroke-width:1.25px;"/><path d="M706.037,454.127l-6.431,-1.66" style="fill:none;stroke:#6a64d3;stroke-width:1.25px;"/><path d="M703.537,463.81l-6.431,-1.661" style="fill:none;stroke:#6a64d3;stroke-width:1.25px;"/><path d="M710.849,460.469l-5.715,-1.411" style="fill:none;stroke:#6a64d3;stroke-width:1.25px;"/><path d="M700.914,457.969l-6.431,-1.661" style="fill:none;stroke:#6a64d3;stroke-width:1.25px;"/><path d="M708.096,470.151l-6.431,-1.66" style="fill:none;stroke:#6a64d3;stroke-width:1.25px;"/></g><g><path d="M715.597,441.104l-6.431,-1.661" style="fill:none;stroke:#6a64d3;stroke-width:1.25px;"/><path d="M719.188,447.195l-6.431,-1.66" style="fill:none;stroke:#6a64d3;stroke-width:1.25px;"/><path d="M708.537,444.445l-6.431,-1.661" style="fill:none;stroke:#6a64d3;stroke-width:1.25px;"/><path d="M706.037,454.127l-6.431,-1.66" style="fill:none;stroke:#6a64d3;stroke-width:1.25px;"/><path d="M714.065,451.036l-6.431,-1.66" style="fill:none;stroke:#6a64d3;stroke-width:1.25px;"/><path d="M703.414,448.286l-6.431,-1.66" style="fill:none;stroke:#6a64d3;stroke-width:1.25px;"/><path d="M710.596,460.469l-6.431,-1.661" style="fill:none;stroke:#6a64d3;stroke-width:1.25px;"/></g><g><path d="M718.097,431.421l-6.431,-1.66" style="fill:none;stroke:#6a64d3;stroke-width:1.25px;"/><path d="M721.688,437.513l-6.431,-1.661" style="fill:none;stroke:#6a64d3;stroke-width:1.25px;"/><path d="M711.037,434.763l-6.431,-1.661" style="fill:none;stroke:#6a64d3;stroke-width:1.25px;"/><path d="M708.537,444.445l-6.431,-1.661" style="fill:none;stroke:#6a64d3;stroke-width:1.25px;"/><path d="M716.565,441.354l-6.431,-1.661" style="fill:none;stroke:#6a64d3;stroke-width:1.25px;"/><path d="M719.188,447.195l-6.431,-1.66" style="fill:none;stroke:#6a64d3;stroke-width:1.25px;"/><path d="M705.914,438.604l-6.431,-1.661" style="fill:none;stroke:#6a64d3;stroke-width:1.25px;"/><path d="M713.097,450.786l-6.431,-1.66" style="fill:none;stroke:#6a64d3;stroke-width:1.25px;"/></g></g><g><g><path d="M715.597,441.104l-6.431,-1.661" style="fill:none;stroke:#6a64d3;stroke-width:1.25px;"/><path d="M719.188,447.195l-6.431,-1.66" style="fill:none;stroke:#6a64d3;stroke-width:1.25px;"/><path d="M708.537,444.445l-6.431,-1.661" style="fill:none;stroke:#6a64d3;stroke-width:1.25px;"/><path d="M706.037,454.127l-6.431,-1.66" style="fill:none;stroke:#6a64d3;stroke-width:1.25px;"/><path d="M714.065,451.036l-6.431,-1.66" style="fill:none;stroke:#6a64d3;stroke-width:1.25px;"/><path d="M703.414,448.286l-6.431,-1.66" style="fill:none;stroke:#6a64d3;stroke-width:1.25px;"/><path d="M710.596,460.469l-6.431,-1.661" style="fill:none;stroke:#6a64d3;stroke-width:1.25px;"/></g><g><path d="M718.097,431.421l-6.431,-1.66" style="fill:none;stroke:#6a64d3;stroke-width:1.25px;"/><path d="M721.688,437.513l-6.431,-1.661" style="fill:none;stroke:#6a64d3;stroke-width:1.25px;"/><path d="M711.037,434.763l-6.431,-1.661" style="fill:none;stroke:#6a64d3;stroke-width:1.25px;"/><path d="M708.537,444.445l-6.431,-1.661" style="fill:none;stroke:#6a64d3;stroke-width:1.25px;"/><path d="M716.565,441.354l-6.431,-1.661" style="fill:none;stroke:#6a64d3;stroke-width:1.25px;"/><path d="M719.188,447.195l-6.431,-1.66" style="fill:none;stroke:#6a64d3;stroke-width:1.25px;"/><path d="M705.914,438.604l-6.431,-1.661" style="fill:none;stroke:#6a64d3;stroke-width:1.25px;"/><path d="M713.097,450.786l-6.431,-1.66" style="fill:none;stroke:#6a64d3;stroke-width:1.25px;"/></g><g><path d="M720.597,421.739l-6.431,-1.661" style="fill:none;stroke:#6a64d3;stroke-width:1.25px;"/><path d="M724.188,427.83l-6.431,-1.66" style="fill:none;stroke:#6a64d3;stroke-width:1.25px;"/><path d="M713.537,425.08l-6.43,-1.66" style="fill:none;stroke:#6a64d3;stroke-width:1.25px;"/><path d="M711.037,434.763l-6.431,-1.661" style="fill:none;stroke:#6a64d3;stroke-width:1.25px;"/><path d="M719.065,431.671l-6.431,-1.66" style="fill:none;stroke:#6a64d3;stroke-width:1.25px;"/><path d="M721.688,437.513l-6.431,-1.661" style="fill:none;stroke:#6a64d3;stroke-width:1.25px;"/><path d="M708.414,428.921l-6.431,-1.66" style="fill:none;stroke:#6a64d3;stroke-width:1.25px;"/><path d="M715.597,441.104l-6.431,-1.661" style="fill:none;stroke:#6a64d3;stroke-width:1.25px;"/></g><g><path d="M723.097,412.057l-6.431,-1.661" style="fill:none;stroke:#6a64d3;stroke-width:1.25px;"/><path d="M726.688,418.148l-6.431,-1.661" style="fill:none;stroke:#6a64d3;stroke-width:1.25px;"/><path d="M716.038,415.398l-6.431,-1.661" style="fill:none;stroke:#6a64d3;stroke-width:1.25px;"/><path d="M713.537,425.08l-6.43,-1.66" style="fill:none;stroke:#6a64d3;stroke-width:1.25px;"/><path d="M721.565,421.989l-6.431,-1.661" style="fill:none;stroke:#6a64d3;stroke-width:1.25px;"/><path d="M724.188,427.83l-6.431,-1.66" style="fill:none;stroke:#6a64d3;stroke-width:1.25px;"/><path d="M710.915,419.239l-6.431,-1.661" style="fill:none;stroke:#6a64d3;stroke-width:1.25px;"/><path d="M718.097,431.421l-6.431,-1.66" style="fill:none;stroke:#6a64d3;stroke-width:1.25px;"/></g></g></g></g></g><g><g><g><g><g><path d="M470.836,403.832l6.431,-1.66" style="fill:none;stroke:#6a64d3;stroke-width:1.25px;"/><path d="M473.336,413.515l6.431,-1.661" style="fill:none;stroke:#6a64d3;stroke-width:1.25px;"/><path d="M475.959,407.674l6.431,-1.661" style="fill:none;stroke:#6a64d3;stroke-width:1.25px;"/></g><g><path d="M468.336,394.15l6.431,-1.661" style="fill:none;stroke:#6a64d3;stroke-width:1.25px;"/><path d="M470.836,403.832l6.431,-1.66" style="fill:none;stroke:#6a64d3;stroke-width:1.25px;"/><path d="M473.459,397.991l6.431,-1.66" style="fill:none;stroke:#6a64d3;stroke-width:1.25px;"/></g><g><path d="M463.336,374.785l6.431,-1.66" style="fill:none;stroke:#6a64d3;stroke-width:1.25px;"/><path d="M465.836,384.468l6.431,-1.661" style="fill:none;stroke:#6a64d3;stroke-width:1.25px;"/><path d="M468.459,378.626l6.431,-1.66" style="fill:none;stroke:#6a64d3;stroke-width:1.25px;"/></g></g><g><g><path d="M465.836,384.468l6.431,-1.661" style="fill:none;stroke:#6a64d3;stroke-width:1.25px;"/><path d="M470.959,388.309l6.431,-1.661" style="fill:none;stroke:#6a64d3;stroke-width:1.25px;"/></g><g><path d="M463.336,374.785l6.431,-1.66" style="fill:none;stroke:#6a64d3;stroke-width:1.25px;"/><path d="M465.836,384.468l6.431,-1.661" style="fill:none;stroke:#6a64d3;stroke-width:1.25px;"/><path d="M468.459,378.626l6.431,-1.66" style="fill:none;stroke:#6a64d3;stroke-width:1.25px;"/></g><g><path d="M460.835,365.103l6.431,-1.661" style="fill:none;stroke:#6a64d3;stroke-width:1.25px;"/><path d="M463.336,374.785l6.431,-1.66" style="fill:none;stroke:#6a64d3;stroke-width:1.25px;"/><path d="M465.958,368.944l6.431,-1.661" style="fill:none;stroke:#6a64d3;stroke-width:1.25px;"/></g><g><path d="M458.335,355.42l6.431,-1.66" style="fill:none;stroke:#6a64d3;stroke-width:1.25px;"/><path d="M460.835,365.103l6.431,-1.661" style="fill:none;stroke:#6a64d3;stroke-width:1.25px;"/><path d="M463.458,359.261l6.431,-1.66" style="fill:none;stroke:#6a64d3;stroke-width:1.25px;"/></g></g></g></g><g><g><g><g><path d="M491.558,460.469l6.431,-1.661" style="fill:none;stroke:#6a64d3;stroke-width:1.25px;"/><path d="M498.617,463.81l6.431,-1.661" style="fill:none;stroke:#6a64d3;stroke-width:1.25px;"/><path d="M503.74,467.651l6.431,-1.661" style="fill:none;stroke:#6a64d3;stroke-width:1.25px;"/></g><g><path d="M489.058,450.786l6.431,-1.66" style="fill:none;stroke:#6a64d3;stroke-width:1.25px;"/><path d="M496.117,454.127l6.431,-1.66" style="fill:none;stroke:#6a64d3;stroke-width:1.25px;"/><path d="M498.617,463.81l6.431,-1.661" style="fill:none;stroke:#6a64d3;stroke-width:1.25px;"/><path d="M491.987,459.582l5.033,-0.524" style="fill:none;stroke:#6a64d3;stroke-width:1.25px;"/><path d="M501.24,457.969l6.431,-1.661" style="fill:none;stroke:#6a64d3;stroke-width:1.25px;"/></g><g><path d="M486.557,441.104l6.431,-1.661" style="fill:none;stroke:#6a64d3;stroke-width:1.25px;"/><path d="M482.966,447.195l6.431,-1.66" style="fill:none;stroke:#6a64d3;stroke-width:1.25px;"/><path d="M493.617,444.445l6.431,-1.661" style="fill:none;stroke:#6a64d3;stroke-width:1.25px;"/><path d="M496.117,454.127l6.431,-1.66" style="fill:none;stroke:#6a64d3;stroke-width:1.25px;"/><path d="M488.089,451.036l6.431,-1.66" style="fill:none;stroke:#6a64d3;stroke-width:1.25px;"/><path d="M498.74,448.286l6.431,-1.66" style="fill:none;stroke:#6a64d3;stroke-width:1.25px;"/><path d="M492.505,460.355l5.484,-1.547" style="fill:none;stroke:#6a64d3;stroke-width:1.25px;"/></g><g><path d="M484.057,431.421l6.431,-1.66" style="fill:none;stroke:#6a64d3;stroke-width:1.25px;"/><path d="M480.466,437.513l6.431,-1.661" style="fill:none;stroke:#6a64d3;stroke-width:1.25px;"/><path d="M491.117,434.763l6.431,-1.661" style="fill:none;stroke:#6a64d3;stroke-width:1.25px;"/><path d="M493.617,444.445l6.431,-1.661" style="fill:none;stroke:#6a64d3;stroke-width:1.25px;"/><path d="M485.589,441.354l6.431,-1.661" style="fill:none;stroke:#6a64d3;stroke-width:1.25px;"/><path d="M482.966,447.195l6.431,-1.66" style="fill:none;stroke:#6a64d3;stroke-width:1.25px;"/><path d="M496.24,438.604l6.431,-1.661" style="fill:none;stroke:#6a64d3;stroke-width:1.25px;"/><path d="M489.058,450.786l6.431,-1.66" style="fill:none;stroke:#6a64d3;stroke-width:1.25px;"/></g></g><g><g><path d="M486.557,441.104l6.431,-1.661" style="fill:none;stroke:#6a64d3;stroke-width:1.25px;"/><path d="M482.966,447.195l6.431,-1.66" style="fill:none;stroke:#6a64d3;stroke-width:1.25px;"/><path d="M493.617,444.445l6.431,-1.661" style="fill:none;stroke:#6a64d3;stroke-width:1.25px;"/><path d="M496.117,454.127l6.431,-1.66" style="fill:none;stroke:#6a64d3;stroke-width:1.25px;"/><path d="M488.089,451.036l6.431,-1.66" style="fill:none;stroke:#6a64d3;stroke-width:1.25px;"/><path d="M498.74,448.286l6.431,-1.66" style="fill:none;stroke:#6a64d3;stroke-width:1.25px;"/><path d="M491.987,460.355l6.002,-1.547" style="fill:none;stroke:#6a64d3;stroke-width:1.25px;"/></g><g><path d="M484.057,431.421l6.431,-1.66" style="fill:none;stroke:#6a64d3;stroke-width:1.25px;"/><path d="M480.466,437.513l6.431,-1.661" style="fill:none;stroke:#6a64d3;stroke-width:1.25px;"/><path d="M491.117,434.763l6.431,-1.661" style="fill:none;stroke:#6a64d3;stroke-width:1.25px;"/><path d="M493.617,444.445l6.431,-1.661" style="fill:none;stroke:#6a64d3;stroke-width:1.25px;"/><path d="M485.589,441.354l6.431,-1.661" style="fill:none;stroke:#6a64d3;stroke-width:1.25px;"/><path d="M482.966,447.195l6.431,-1.66" style="fill:none;stroke:#6a64d3;stroke-width:1.25px;"/><path d="M496.24,438.604l6.431,-1.661" style="fill:none;stroke:#6a64d3;stroke-width:1.25px;"/><path d="M489.058,450.786l6.431,-1.66" style="fill:none;stroke:#6a64d3;stroke-width:1.25px;"/></g><g><path d="M481.557,421.739l6.431,-1.661" style="fill:none;stroke:#6a64d3;stroke-width:1.25px;"/><path d="M477.966,427.83l6.431,-1.66" style="fill:none;stroke:#6a64d3;stroke-width:1.25px;"/><path d="M488.617,425.08l6.431,-1.66" style="fill:none;stroke:#6a64d3;stroke-width:1.25px;"/><path d="M491.117,434.763l6.431,-1.661" style="fill:none;stroke:#6a64d3;stroke-width:1.25px;"/><path d="M483.089,431.671l6.431,-1.66" style="fill:none;stroke:#6a64d3;stroke-width:1.25px;"/><path d="M480.466,437.513l6.431,-1.661" style="fill:none;stroke:#6a64d3;stroke-width:1.25px;"/><path d="M493.74,428.921l6.431,-1.66" style="fill:none;stroke:#6a64d3;stroke-width:1.25px;"/><path d="M486.557,441.104l6.431,-1.661" style="fill:none;stroke:#6a64d3;stroke-width:1.25px;"/></g><g><path d="M479.057,412.057l6.431,-1.661" style="fill:none;stroke:#6a64d3;stroke-width:1.25px;"/><path d="M475.466,418.148l6.431,-1.661" style="fill:none;stroke:#6a64d3;stroke-width:1.25px;"/><path d="M486.117,415.398l6.431,-1.661" style="fill:none;stroke:#6a64d3;stroke-width:1.25px;"/><path d="M488.617,425.08l6.431,-1.66" style="fill:none;stroke:#6a64d3;stroke-width:1.25px;"/><path d="M480.589,421.989l6.431,-1.661" style="fill:none;stroke:#6a64d3;stroke-width:1.25px;"/><path d="M477.966,427.83l6.431,-1.66" style="fill:none;stroke:#6a64d3;stroke-width:1.25px;"/><path d="M491.24,419.239l6.431,-1.661" style="fill:none;stroke:#6a64d3;stroke-width:1.25px;"/><path d="M484.057,431.421l6.431,-1.66" style="fill:none;stroke:#6a64d3;stroke-width:1.25px;"/></g></g></g></g></g><g><path d="M631.28,442.724c-0,0 -0.138,1.878 1.016,3.365" style="fill:none;stroke:#6a64d3;stroke-width:3px;"/><path d="M620.474,442.724c-0,0 1.575,5.428 2.361,10.282" style="fill:none;stroke:#6a64d3;stroke-width:3px;"/><path d="M614.841,442.724c0,0 2.489,10.754 2.34,13.46" style="fill:none;stroke:#6a64d3;stroke-width:3px;"/><path d="M603.326,442.724c0,0 1.254,14.068 1.252,18.074" style="fill:none;stroke:#6a64d3;stroke-width:3px;"/><path d="M597.125,442.724c0,0 0.639,15.719 1.386,19.298" style="fill:none;stroke:#6a64d3;stroke-width:3px;"/><path d="M591.594,442.724c0,0 0.422,14.177 -0.338,17.647" style="fill:none;stroke:#6a64d3;stroke-width:3px;"/><path d="M585.793,442.724c0,0 -0.898,11.036 -1.996,16.35" style="fill:none;stroke:#6a64d3;stroke-width:3px;"/><path d="M580.811,442.724c-0,0 -2.936,8.479 -3.111,13.001" style="fill:none;stroke:#6a64d3;stroke-width:3px;"/><path d="M608.954,442.724c0,0 0.63,9.453 2.367,16.419" style="fill:none;stroke:#6a64d3;stroke-width:3px;"/><path d="M575.476,442.724c-0,0 0.079,3.299 -2.233,8.106" style="fill:none;stroke:#6a64d3;stroke-width:3px;"/><path d="M626.54,442.724c0,0 0.735,5.242 1.889,6.73" style="fill:none;stroke:#6a64d3;stroke-width:3px;"/><path d="M570.833,442.724c-0,0 0.775,-1.442 -1.537,3.365" style="fill:none;stroke:#6a64d3;stroke-width:3px;"/></g><g><path d="M650.111,382.455c0,0 24.362,12.224 32.5,19.627" style="fill:none;stroke:#6a64d3;stroke-width:3.5px;"/><path d="M638.695,381.014c0,0 7.645,10.631 34.095,21.068" style="fill:none;stroke:#6a64d3;stroke-width:3.5px;"/><path d="M628.093,379.215c0.528,1.69 11.989,16.259 30.685,22.867" style="fill:none;stroke:#6a64d3;stroke-width:3.5px;"/><path d="M620.05,382.455c0,0 4.712,8.791 25.027,20.727" style="fill:none;stroke:#6a64d3;stroke-width:3.5px;"/><path d="M613.208,386.055c-0,0 3.638,9.198 20.7,18.314" style="fill:none;stroke:#6a64d3;stroke-width:3.5px;"/><path d="M608.717,391.815c-0,0 2.544,7.969 14.827,13.231" style="fill:none;stroke:#6a64d3;stroke-width:3.5px;"/></g><g><path d="M559.422,382.594c-0,-0 -24.362,12.223 -32.5,19.626" style="fill:none;stroke:#6a64d3;stroke-width:3.5px;"/><path d="M570.838,381.153c-0,-0 -7.451,10.63 -33.901,21.067" style="fill:none;stroke:#6a64d3;stroke-width:3.5px;"/><path d="M581.44,379.353c-0.528,1.69 -11.989,16.259 -30.685,22.867" style="fill:none;stroke:#6a64d3;stroke-width:3.5px;"/><path d="M589.483,382.594c0,-0 -4.712,8.791 -25.027,20.727" style="fill:none;stroke:#6a64d3;stroke-width:3.5px;"/><path d="M596.325,386.194c0,-0 -3.638,9.197 -20.7,18.313" style="fill:none;stroke:#6a64d3;stroke-width:3.5px;"/><path d="M600.816,391.954c0,-0 -2.544,7.968 -14.827,13.231" style="fill:none;stroke:#6a64d3;stroke-width:3.5px;"/></g><g id="goat"><path d="M588.461,495.266l-0,10.761" style="fill:none;stroke:#8d88f3;stroke-width:1.5px;"/><path d="M603.461,500.266l-0,12.103" style="fill:none;stroke:#8d88f3;stroke-width:1.5px;"/><path d="M608.461,495.266l-0,10.761" style="fill:none;stroke:#8d88f3;stroke-width:1.5px;"/><path d="M598.461,500.266l-0,5.761" style="fill:none;stroke:#8d88f3;stroke-width:1.5px;"/><path d="M613.461,506.989l-0,10.761" style="fill:none;stroke:#8d88f3;stroke-width:1.5px;"/><path d="M618.461,495.266l-0,10.761" style="fill:none;stroke:#8d88f3;stroke-width:1.5px;"/><path d="M608.461,495.266l-0,10.761" style="fill:none;stroke:#8d88f3;stroke-width:1.5px;"/><path d="M623.461,500.266l-0,10.761" style="fill:none;stroke:#8d88f3;stroke-width:1.5px;"/><path d="M628.461,495.266l-0,10.761" style="fill:none;stroke:#8d88f3;stroke-width:1.5px;"/><path d="M618.461,495.266l-0,20.355" style="fill:none;stroke:#8d88f3;stroke-width:1.5px;"/><path d="M633.461,500.266l-0,10.761" style="fill:none;stroke:#8d88f3;stroke-width:1.5px;"/><path d="M638.461,495.266l-0,10.761" style="fill:none;stroke:#8d88f3;stroke-width:1.5px;"/><path d="M628.461,495.266l-0,20.355" style="fill:none;stroke:#8d88f3;stroke-width:1.5px;"/><path d="M643.461,500.266l-0,10.761" style="fill:none;stroke:#8d88f3;stroke-width:1.5px;"/><path d="M648.461,495.266l-0,10.761" style="fill:none;stroke:#8d88f3;stroke-width:1.5px;"/><path d="M638.461,495.266l-0,14.554" style="fill:none;stroke:#8d88f3;stroke-width:1.5px;"/><path d="M638.461,487.393l-0,12.634" style="fill:none;stroke:#8d88f3;stroke-width:1.5px;"/><path d="M643.461,488.837l-0,16.606" style="fill:none;stroke:#8d88f3;stroke-width:1.5px;"/><path d="M628.461,484.266l-0,15.761" style="fill:none;stroke:#8d88f3;stroke-width:1.5px;"/><path d="M633.461,485.963l-0,23.857" style="fill:none;stroke:#8d88f3;stroke-width:1.5px;"/><path d="M623.461,484.266l-0,10.761" style="fill:none;stroke:#8d88f3;stroke-width:1.5px;"/><path d="M618.461,482.155l-0,13.872" style="fill:none;stroke:#8d88f3;stroke-width:1.5px;"/><path d="M623.461,482.155l-0,36.089" style="fill:none;stroke:#8d88f3;stroke-width:1.5px;"/><path d="M613.461,481.852l-0,36.392" style="fill:none;stroke:#8d88f3;stroke-width:1.5px;"/><path d="M608.461,483.328l-0,37.699" style="fill:none;stroke:#8d88f3;stroke-width:1.5px;"/><path d="M613.461,498.289l-0,4.82" style="fill:none;stroke:#8d88f3;stroke-width:1.5px;"/><path d="M603.461,484.266l-0,36.761" style="fill:none;stroke:#8d88f3;stroke-width:1.5px;"/><path d="M543.461,493.266l-0,10.761" style="fill:none;stroke:#8d88f3;stroke-width:1.5px;"/><path d="M538.461,494.854l-0,7.689" style="fill:none;stroke:#8d88f3;stroke-width:1.5px;"/><path d="M548.461,490.266l-0,14.875" style="fill:none;stroke:#8d88f3;stroke-width:1.5px;"/><path d="M653.461,491.289l-0,14.738" style="fill:none;stroke:#8d88f3;stroke-width:1.5px;"/><path d="M658.461,491.289l-0,9.738" style="fill:none;stroke:#8d88f3;stroke-width:1.5px;"/><path d="M663.461,492.953l-0,8.074" style="fill:none;stroke:#8d88f3;stroke-width:1.5px;"/><path d="M648.461,490.266l-0,10.761" style="fill:none;stroke:#8d88f3;stroke-width:1.5px;"/><path d="M598.461,486.723l-0,34.304" style="fill:none;stroke:#8d88f3;stroke-width:1.5px;"/><path d="M588.461,483.484l-0,37.543" style="fill:none;stroke:#8d88f3;stroke-width:1.5px;"/><path d="M583.461,481.852l-0,39.175" style="fill:none;stroke:#8d88f3;stroke-width:1.5px;"/><path d="M573.392,480.467l0,37.43" style="fill:none;stroke:#8d88f3;stroke-width:1.5px;"/><path d="M578.461,480.467l-0,37.43" style="fill:none;stroke:#8d88f3;stroke-width:1.5px;"/><path d="M568.526,480.467l0,35.673" style="fill:none;stroke:#8d88f3;stroke-width:1.5px;"/><path d="M593.461,486.092l-0,34.935" style="fill:none;stroke:#8d88f3;stroke-width:1.5px;"/><path d="M593.461,496.641l-0,6.505" style="fill:none;stroke:#8d88f3;stroke-width:1.5px;"/><path d="M563.461,481.885l-0,34.255" style="fill:none;stroke:#8d88f3;stroke-width:1.5px;"/><path d="M563.461,508.943l-0,5.717" style="fill:none;stroke:#8d88f3;stroke-width:1.5px;"/><path d="M558.461,484.266l-0,26.685" style="fill:none;stroke:#8d88f3;stroke-width:1.5px;"/><path d="M553.461,486.135l-0,16.538" style="fill:none;stroke:#8d88f3;stroke-width:1.5px;"/><path d="M618.461,509.266l-0,10.761" style="fill:none;stroke:#8d88f3;stroke-width:1.5px;"/><path d="M608.461,509.266l-0,10.761" style="fill:none;stroke:#8d88f3;stroke-width:1.5px;"/><path d="M583.461,500.266l-0,10.761" style="fill:none;stroke:#8d88f3;stroke-width:1.5px;"/><path d="M588.461,495.266l-0,10.761" style="fill:none;stroke:#8d88f3;stroke-width:1.5px;"/><path d="M578.461,495.266l-0,10.761" style="fill:none;stroke:#8d88f3;stroke-width:1.5px;"/><path d="M578.461,495.266l-0,10.761" style="fill:none;stroke:#8d88f3;stroke-width:1.5px;"/><path d="M573.392,498.254l0,12.773" style="fill:none;stroke:#8d88f3;stroke-width:1.5px;"/><path d="M568.461,498.254l-0,8.838" style="fill:none;stroke:#8d88f3;stroke-width:1.5px;"/><path d="M578.461,495.266l-0,10.761" style="fill:none;stroke:#8d88f3;stroke-width:1.5px;"/><path d="M563.461,495.331l-0,10.761" style="fill:none;stroke:#8d88f3;stroke-width:1.5px;"/><path d="M568.526,510.356l-0.065,2.671" style="fill:none;stroke:#8d88f3;stroke-width:1.5px;"/><path d="M583.526,515.356l-0.065,2.671" style="fill:none;stroke:#8d88f3;stroke-width:1.5px;"/><path d="M583.526,515.356l-0.065,2.671" style="fill:none;stroke:#8d88f3;stroke-width:1.5px;"/><path d="M603.526,515.356l-0.065,2.671" style="fill:none;stroke:#8d88f3;stroke-width:1.5px;"/><path d="M573.526,514.356l-0.065,2.671" style="fill:none;stroke:#8d88f3;stroke-width:1.5px;"/><path d="M553.461,496.603l-0,10.761" style="fill:none;stroke:#8d88f3;stroke-width:1.5px;"/><path d="M558.461,498.266l-0,10.761" style="fill:none;stroke:#8d88f3;stroke-width:1.5px;"/><path d="M548.461,501.983l-0,5.381" style="fill:none;stroke:#8d88f3;stroke-width:1.5px;"/><path d="M588.461,510.266l-0,10.761" style="fill:none;stroke:#8d88f3;stroke-width:1.5px;"/><path d="M578.461,510.266l-0,10.761" style="fill:none;stroke:#8d88f3;stroke-width:1.5px;"/><path d="M598.461,510.266l-0,10.761" style="fill:none;stroke:#8d88f3;stroke-width:1.5px;"/><path d="M593.461,508.065l-0,12.928" style="fill:none;stroke:#8d88f3;stroke-width:1.5px;"/></g></g><g id="nose"><g><path d="M582.351,367.941c0,0 -11.737,7.563 -22.87,0c0,0 -8.626,-5.194 -1.084,-12.736" style="fill:none;stroke:#6a64d3;stroke-width:5px;"/><path d="M582.351,367.941c0,0 19.247,16.767 45.611,0" style="fill:none;stroke:#6a64d3;stroke-width:5px;"/><path d="M627.962,367.941c-0,0 12.487,6.689 22.87,0" style="fill:none;stroke:#6a64d3;stroke-width:5px;"/><path d="M650.832,367.941c-0,0 7.092,-4.107 -0,-12.736" style="fill:#2d0069;stroke:#6a64d3;stroke-width:5.5px;"/></g><path d="M621.269,299.145c0,-0 -7.74,21.421 10.674,41.265" style="fill:none;stroke:#6a64d3;stroke-width:5px;"/><path d="M589.668,299.145c-0,-0 7.74,21.421 -10.674,41.265" style="fill:none;stroke:#6a64d3;stroke-width:5px;"/></g><g id="eyes"><g><circle cx="540.476" cy="270.507" r="9.385" style="fill:none;stroke:#6a64d3;stroke-width:5px;"/><path d="M516.845,277.877c0,0 15.355,13.133 46.319,2.366" style="fill:none;stroke:#6a64d3;stroke-width:5px;"/><path d="M501.299,274.607c-0,-0 37.781,-36.959 78.354,1.35" style="fill:none;stroke:#6a64d3;stroke-width:5px;"/></g><g><circle cx="671.779" cy="270.507" r="9.385" style="fill:none;stroke:#6a64d3;stroke-width:5px;"/><path d="M695.409,277.877c0,0 -15.355,13.133 -46.318,2.366" style="fill:none;stroke:#6a64d3;stroke-width:5px;"/><path d="M710.956,274.607c-0,-0 -37.781,-36.959 -78.354,1.35" style="fill:none;stroke:#6a64d3;stroke-width:5px;"/></g></g><g id="eyebrows"><path d="M574.258,245.632c-0,0 -40.059,-23.725 -82.818,-2.423c-1.976,0.984 -2.781,3.388 -1.797,5.364c0.985,1.976 3.388,2.781 5.364,1.796c38.814,-19.335 75.178,2.149 75.178,2.149c1.9,1.124 4.355,0.494 5.479,-1.406c1.124,-1.9 0.494,-4.356 -1.406,-5.48Z" style="fill:#6a64d3;"/><path d="M638.908,252.518c0,-0 36.364,-21.484 75.177,-2.149c1.976,0.985 4.38,0.18 5.364,-1.796c0.985,-1.976 0.18,-4.38 -1.796,-5.364c-42.759,-21.302 -82.818,2.423 -82.818,2.423c-1.9,1.124 -2.53,3.58 -1.406,5.48c1.124,1.9 3.579,2.53 5.479,1.406Z" style="fill:#6a64d3;"/></g><g id="hair"><path d="M530.067,66.851c0,0 -49.099,-2.501 -67.826,25.701" style="fill:none;stroke:#6a64d3;stroke-width:6px;"/><path d="M582.629,70.973c0,-0 -70.259,-42.783 -128.503,-0.346" style="fill:none;stroke:#6a64d3;stroke-width:6px;"/><path d="M623.11,80.213c-0,-0 -85.67,-62.97 -149.634,-41.278" style="fill:none;stroke:#6a64d3;stroke-width:6px;"/><path d="M659.763,101.21c0,-0 -73.832,-86.35 -154.268,-88.85" style="fill:none;stroke:#6a64d3;stroke-width:6px;"/><path d="M678.953,101.291c0,-0 -35.701,-63.123 -127.323,-98.291" style="fill:none;stroke:#6a64d3;stroke-width:6px;"/><path d="M699.79,104.157c-0,-0 -0.856,-36.842 -101.007,-101.157" style="fill:none;stroke:#6a64d3;stroke-width:6px;"/><path d="M719.18,108.433c0,-0 -9.857,-51.896 -82.625,-99.673" style="fill:none;stroke:#6a64d3;stroke-width:6px;"/><path d="M456.617,104.157c-0,-0 3.465,60.657 -3.329,74.682" style="fill:none;stroke:#6a64d3;stroke-width:6px;"/><path d="M444.333,222.449c-0,-0 -6.85,-97.634 -0.452,-120.138" style="fill:none;stroke:#6a64d3;stroke-width:6px;"/><path d="M471.199,131.554c-0,-0 3.742,45.925 -15.345,74.983" style="fill:none;stroke:#6a64d3;stroke-width:6px;"/><path d="M745.12,186.387c0,-0 26.929,-76.75 -66.167,-170.192" style="fill:none;stroke:#6a64d3;stroke-width:6px;"/><path d="M750.84,231.803c0,0 45.285,-136.777 -36.906,-200.498" style="fill:none;stroke:#6a64d3;stroke-width:6px;"/><path d="M599.793,123.109c0,-0 -38.399,-18.371 -77.854,0.763" style="fill:none;stroke:#6a64d3;stroke-width:6px;"/><path d="M623.277,113.672c-0,-0 -67.277,-35.967 -125.935,-0" style="fill:none;stroke:#6a64d3;stroke-width:6px;"/><path d="M632.448,100.197c0,0 -86.63,-50.634 -156.815,7.05" style="fill:none;stroke:#6a64d3;stroke-width:6px;"/></g><g id="ears"><path d="M745.305,252.569c0,-0 15.476,-23.358 22.49,-1.736c0,-0 10.459,39.038 -20.098,75.516" style="fill:none;stroke:#6a64d3;stroke-width:6px;"/><path d="M448.747,244.919c-0,-0 -19.084,-22.936 -24.01,4.458c0,-0 -2.237,52.28 9.722,68.234c11.958,15.953 18.417,22.941 21.464,31.783" style="fill:none;stroke:#6a64d3;stroke-width:6px;"/><path d="M756.643,255.143c0,-0 4.626,17.345 2.905,28.289" style="fill:none;stroke:#6a64d3;stroke-width:3.5px;"/><path d="M437.446,249.075c-0,0 -2.903,33.247 2.188,58.951" style="fill:none;stroke:#6a64d3;stroke-width:3.5px;"/></g><g id="face-outline"><path d="M449.588,248.563c-0,-0 0.314,23.372 -0.718,50.582c-1.031,27.209 4.673,32.804 6.842,46.719c2.168,13.916 12.489,82.107 37.903,113.065c-0,-0 56.555,69.639 111.033,62.041c-0,0 98.567,-16.563 124.06,-99.647c0,0 26.089,-111.519 21.616,-145.872c0,0 -5.001,-25.322 -14.885,-54.024c-9.884,-28.702 -1.667,-74.155 -2.525,-81.569c-0.857,-7.414 -41.25,-52.043 -133.705,-4.746c0,-0 -57.982,27.61 -115.739,-3.084c0,-0 2.204,57.116 -14.781,81.006c-16.986,23.889 -16.057,19.392 -19.101,35.529Z" style="fill:none;stroke:#6a64d3;stroke-width:6px;"/></g><g id="shirt"><g><path d="M481.2,450.039c-0,-0 -30.836,121.736 104.593,127.197c0,-0 118.5,1.752 116.466,-109.302" style="fill:none;stroke:#fff;stroke-width:5px;"/><path d="M480.875,450.039c-0,-0 -107.348,35.323 -152.522,83.722" style="fill:none;stroke:#fff;stroke-width:5px;"/><path d="M702.259,467.934c-0,0 69.165,18.298 126.129,53.616" style="fill:none;stroke:#fff;stroke-width:5px;"/></g></g></g></svg>